<svg xmlns="http://www.w3.org/2000/svg" width="340" height="200" viewBox="0 0 340 200"><style>* {
          font-family: 'Segoe UI', Ubuntu, "Helvetica Neue", Sans-Serif
        }</style><rect x="1" y="1" rx="5" ry="5" height="99%" width="99.41176470588235%" stroke="#e4e2e2" stroke-width="1" fill="#ffffff" stroke-opacity="1"></rect><text x="30" y="40" style="font-size: 22px; fill: #586e75;">Top Languages by Commit</text><g transform="translate(0,40)"><g transform="translate(40,0)"><rect y="18" width="14" height="14" fill="#3572A5" stroke="#ffffff" style="stroke-width: 1px;"></rect><rect y="43.2" width="14" height="14" fill="#00B4AB" stroke="#ffffff" style="stroke-width: 1px;"></rect><rect y="68.4" width="14" height="14" fill="#dea584" stroke="#ffffff" style="stroke-width: 1px;"></rect><rect y="93.60000000000002" width="14" height="14" fill="#3178c6" stroke="#ffffff" style="stroke-width: 1px;"></rect><rect y="118.80000000000001" width="14" height="14" fill="#e34c26" stroke="#ffffff" style="stroke-width: 1px;"></rect><text x="16.8" y="30" style="fill: #586e75; font-size: 14px;">Python</text><text x="16.8" y="55.2" style="fill: #586e75; font-size: 14px;">Dart</text><text x="16.8" y="80.4" style="fill: #586e75; font-size: 14px;">Rust</text><text x="16.8" y="105.60000000000002" style="fill: #586e75; font-size: 14px;">TypeScript</text><text x="16.8" y="130.8" style="fill: #586e75; font-size: 14px;">HTML</text></g><g transform="translate( 230, 80 )"><g class="arc"><path d="M3.67394039744206e-15,-60A60,60,0,0,1,15.180429912533583,58.0478642817344L8.855250782311257,33.86125416434506A35,35,0,0,0,2.1431318985078682e-15,-35Z" style="fill: #3572A5; stroke-width: 2px;" stroke="#ffffff"></path></g><g class="arc"><path d="M15.180429912533583,58.0478642817344A60,60,0,0,1,-55.184914444285084,-23.550482325781267L-32.191200092499635,-13.737781356705739A35,35,0,0,0,8.855250782311257,33.86125416434506Z" style="fill: #00B4AB; stroke-width: 2px;" stroke="#ffffff"></path></g><g class="arc"><path d="M-55.184914444285084,-23.550482325781267A60,60,0,0,1,-36.5906931950591,-47.551247843826935L-21.344571030451142,-27.738227908899045A35,35,0,0,0,-32.191200092499635,-13.737781356705739Z" style="fill: #dea584; stroke-width: 2px;" stroke="#ffffff"></path></g><g class="arc"><path d="M-36.5906931950591,-47.551247843826935A60,60,0,0,1,-12.11521169491657,-58.76411869148858L-7.067206822034666,-34.279069236701666A35,35,0,0,0,-21.344571030451142,-27.738227908899045Z" style="fill: #3178c6; stroke-width: 2px;" stroke="#ffffff"></path></g><g class="arc"><path d="M-12.11521169491657,-58.76411869148858A60,60,0,0,1,-1.1021821192326178e-14,-60L-6.429395695523604e-15,-35A35,35,0,0,0,-7.067206822034666,-34.279069236701666Z" style="fill: #e34c26; stroke-width: 2px;" stroke="#ffffff"></path></g></g></g></svg>