<svg xmlns="http://www.w3.org/2000/svg" width="340" height="200" viewBox="0 0 340 200"><style>* {
          font-family: 'Segoe UI', Ubuntu, "Helvetica Neue", Sans-Serif
        }</style><g class="gpsc-root"><rect x="1" y="1" rx="5" ry="5" height="99%" width="99.41176470588235%" stroke="#e4e2e2" stroke-width="1" fill="#ffffff" stroke-opacity="1"></rect><text x="30" y="40" class="gpsc-item" style="--gpsc-i: 0; font-size: 22px; fill: #586e75;">Top Languages by Commit</text><g transform="translate(0,40)"><g transform="translate(40,0)"><rect y="18" width="14" height="14" class="gpsc-item" style="--gpsc-i: 0; stroke-width: 1px;" fill="#3572A5" stroke="#ffffff"></rect><rect y="43.2" width="14" height="14" class="gpsc-item" style="--gpsc-i: 1; stroke-width: 1px;" fill="#00B4AB" stroke="#ffffff"></rect><rect y="68.4" width="14" height="14" class="gpsc-item" style="--gpsc-i: 2; stroke-width: 1px;" fill="#3178c6" stroke="#ffffff"></rect><rect y="93.60000000000002" width="14" height="14" class="gpsc-item" style="--gpsc-i: 3; stroke-width: 1px;" fill="#00ADD8" stroke="#ffffff"></rect><rect y="118.80000000000001" width="14" height="14" class="gpsc-item" style="--gpsc-i: 4; stroke-width: 1px;" fill="#dea584" stroke="#ffffff"></rect><text x="16.8" y="30" class="gpsc-item" style="--gpsc-i: 0; fill: #586e75; font-size: 14px;">Python</text><text x="16.8" y="55.2" class="gpsc-item" style="--gpsc-i: 1; fill: #586e75; font-size: 14px;">Dart</text><text x="16.8" y="80.4" class="gpsc-item" style="--gpsc-i: 2; fill: #586e75; font-size: 14px;">TypeScript</text><text x="16.8" y="105.60000000000002" class="gpsc-item" style="--gpsc-i: 3; fill: #586e75; font-size: 14px;">Go</text><text x="16.8" y="130.8" class="gpsc-item" style="--gpsc-i: 4; fill: #586e75; font-size: 14px;">Rust</text></g><g transform="translate( 230, 80 )"><g class="arc" style="--gpsc-i: 0;"><path d="M3.67394039744206e-15,-60A60,60,0,0,1,12.147274216064073,58.75749934365608L7.085909959370709,34.27520795046605A35,35,0,0,0,2.1431318985078682e-15,-35Z" style="fill: #3572A5; stroke-width: 2px;" stroke="#ffffff"></path></g><g class="arc" style="--gpsc-i: 1;"><path d="M12.147274216064073,58.75749934365608A60,60,0,0,1,-56.303682853645526,-20.73391658891544L-32.84381499795989,-12.094784676867341A35,35,0,0,0,7.085909959370709,34.27520795046605Z" style="fill: #00B4AB; stroke-width: 2px;" stroke="#ffffff"></path></g><g class="arc" style="--gpsc-i: 2;"><path d="M-56.303682853645526,-20.73391658891544A60,60,0,0,1,-28.861235654650233,-52.60255769909621L-16.835720798545967,-30.68482532447279A35,35,0,0,0,-32.84381499795989,-12.094784676867341Z" style="fill: #3178c6; stroke-width: 2px;" stroke="#ffffff"></path></g><g class="arc" style="--gpsc-i: 3;"><path d="M-28.861235654650233,-52.60255769909621A60,60,0,0,1,-13.373096035861627,-58.490685603911515L-7.80097268758595,-34.119566602281715A35,35,0,0,0,-16.835720798545967,-30.68482532447279Z" style="fill: #00ADD8; stroke-width: 2px;" stroke="#ffffff"></path></g><g class="arc" style="--gpsc-i: 4;"><path d="M-13.373096035861627,-58.490685603911515A60,60,0,0,1,-1.1021821192326178e-14,-60L-6.429395695523604e-15,-35A35,35,0,0,0,-7.80097268758595,-34.119566602281715Z" style="fill: #dea584; stroke-width: 2px;" stroke="#ffffff"></path></g></g></g></g></svg>