<svg xmlns="http://www.w3.org/2000/svg" width="340" height="200" viewBox="0 0 340 200"><style>* {
          font-family: 'Segoe UI', Ubuntu, "Helvetica Neue", Sans-Serif
        }</style><rect x="1" y="1" rx="5" ry="5" height="99%" width="99.41176470588235%" stroke="#e4e2e2" stroke-width="1" fill="#ffffff" stroke-opacity="1"></rect><text x="30" y="40" style="font-size: 22px; fill: #586e75;">Top Languages by Commit</text><g transform="translate(0,40)"><g transform="translate(40,0)"><rect y="18" width="14" height="14" fill="#3572A5" stroke="#ffffff" style="stroke-width: 1px;"></rect><rect y="43.2" width="14" height="14" fill="#00B4AB" stroke="#ffffff" style="stroke-width: 1px;"></rect><rect y="68.4" width="14" height="14" fill="#dea584" stroke="#ffffff" style="stroke-width: 1px;"></rect><rect y="93.60000000000002" width="14" height="14" fill="#3178c6" stroke="#ffffff" style="stroke-width: 1px;"></rect><rect y="118.80000000000001" width="14" height="14" fill="#e34c26" stroke="#ffffff" style="stroke-width: 1px;"></rect><text x="16.8" y="30" style="fill: #586e75; font-size: 14px;">Python</text><text x="16.8" y="55.2" style="fill: #586e75; font-size: 14px;">Dart</text><text x="16.8" y="80.4" style="fill: #586e75; font-size: 14px;">Rust</text><text x="16.8" y="105.60000000000002" style="fill: #586e75; font-size: 14px;">TypeScript</text><text x="16.8" y="130.8" style="fill: #586e75; font-size: 14px;">HTML</text></g><g transform="translate( 230, 80 )"><g class="arc"><path d="M3.67394039744206e-15,-60A60,60,0,0,1,27.58437457745308,53.28322699659585L16.09088517018096,31.081882414680912A35,35,0,0,0,2.1431318985078682e-15,-35Z" style="fill: #3572A5; stroke-width: 2px;" stroke="#ffffff"></path></g><g class="arc"><path d="M27.58437457745308,53.28322699659585A60,60,0,0,1,-59.60223673568785,6.8973455838475966L-34.767971429151245,4.023451590577765A35,35,0,0,0,16.09088517018096,31.081882414680912Z" style="fill: #00B4AB; stroke-width: 2px;" stroke="#ffffff"></path></g><g class="arc"><path d="M-59.60223673568785,6.8973455838475966A60,60,0,0,1,-34.49893570299637,-49.08995248888027L-20.124379160081215,-28.63580561851349A35,35,0,0,0,-34.767971429151245,4.023451590577765Z" style="fill: #dea584; stroke-width: 2px;" stroke="#ffffff"></path></g><g class="arc"><path d="M-34.49893570299637,-49.08995248888027A60,60,0,0,1,-10.400441346266714,-59.091715322901784L-6.0669241186555825,-34.47016727169271A35,35,0,0,0,-20.124379160081215,-28.63580561851349Z" style="fill: #3178c6; stroke-width: 2px;" stroke="#ffffff"></path></g><g class="arc"><path d="M-10.400441346266714,-59.091715322901784A60,60,0,0,1,4.226888398968133e-14,-60L2.4656848993980778e-14,-35A35,35,0,0,0,-6.0669241186555825,-34.47016727169271Z" style="fill: #e34c26; stroke-width: 2px;" stroke="#ffffff"></path></g></g></g></svg>