<svg xmlns="http://www.w3.org/2000/svg" width="340" height="200" viewBox="0 0 340 200"><style>* {
          font-family: 'Segoe UI', Ubuntu, "Helvetica Neue", Sans-Serif
        }</style><rect x="1" y="1" rx="5" ry="5" height="99%" width="99.41176470588235%" stroke="#e4e2e2" stroke-width="1" fill="#ffffff" stroke-opacity="1"></rect><text x="30" y="40" style="font-size: 22px; fill: #586e75;">Top Languages by Commit</text><g transform="translate(0,40)"><g transform="translate(40,0)"><rect y="18" width="14" height="14" fill="#3572A5" stroke="#ffffff" style="stroke-width: 1px;"></rect><rect y="43.2" width="14" height="14" fill="#00B4AB" stroke="#ffffff" style="stroke-width: 1px;"></rect><rect y="68.4" width="14" height="14" fill="#3178c6" stroke="#ffffff" style="stroke-width: 1px;"></rect><rect y="93.60000000000002" width="14" height="14" fill="#dea584" stroke="#ffffff" style="stroke-width: 1px;"></rect><rect y="118.80000000000001" width="14" height="14" fill="#e34c26" stroke="#ffffff" style="stroke-width: 1px;"></rect><text x="16.8" y="30" style="fill: #586e75; font-size: 14px;">Python</text><text x="16.8" y="55.2" style="fill: #586e75; font-size: 14px;">Dart</text><text x="16.8" y="80.4" style="fill: #586e75; font-size: 14px;">TypeScript</text><text x="16.8" y="105.60000000000002" style="fill: #586e75; font-size: 14px;">Rust</text><text x="16.8" y="130.8" style="fill: #586e75; font-size: 14px;">HTML</text></g><g transform="translate( 230, 80 )"><g class="arc"><path d="M3.67394039744206e-15,-60A60,60,0,0,1,7.5852489680225474,59.51860211810349L4.424728564679819,34.7191845688937A35,35,0,0,0,2.1431318985078682e-15,-35Z" style="fill: #3572A5; stroke-width: 2px;" stroke="#ffffff"></path></g><g class="arc"><path d="M7.5852489680225474,59.51860211810349A60,60,0,0,1,-48.4077697276411,-35.449793088192685L-28.23786567445731,-20.679045968112398A35,35,0,0,0,4.424728564679819,34.7191845688937Z" style="fill: #00B4AB; stroke-width: 2px;" stroke="#ffffff"></path></g><g class="arc"><path d="M-48.4077697276411,-35.449793088192685A60,60,0,0,1,-29.13550917062247,-52.45114017224577L-16.99571368286311,-30.596498433810034A35,35,0,0,0,-28.23786567445731,-20.679045968112398Z" style="fill: #3178c6; stroke-width: 2px;" stroke="#ffffff"></path></g><g class="arc"><path d="M-29.13550917062247,-52.45114017224577A60,60,0,0,1,-12.648902419630806,-58.651558100178875L-7.378526411451303,-34.21340889177101A35,35,0,0,0,-16.99571368286311,-30.596498433810034Z" style="fill: #dea584; stroke-width: 2px;" stroke="#ffffff"></path></g><g class="arc"><path d="M-12.648902419630806,-58.651558100178875A60,60,0,0,1,-1.1021821192326178e-14,-60L-6.429395695523604e-15,-35A35,35,0,0,0,-7.378526411451303,-34.21340889177101Z" style="fill: #e34c26; stroke-width: 2px;" stroke="#ffffff"></path></g></g></g></svg>