<svg xmlns="http://www.w3.org/2000/svg" width="340" height="200" viewBox="0 0 340 200"><style>* {
          font-family: 'Segoe UI', Ubuntu, "Helvetica Neue", Sans-Serif
        }</style><rect x="1" y="1" rx="5" ry="5" height="99%" width="99.41176470588235%" stroke="#e4e2e2" stroke-width="1" fill="#ffffff" stroke-opacity="1"></rect><text x="30" y="40" style="font-size: 22px; fill: #586e75;">Top Languages by Commit</text><g transform="translate(0,40)"><g transform="translate(40,0)"><rect y="18" width="14" height="14" fill="#3572A5" stroke="#ffffff" style="stroke-width: 1px;"></rect><rect y="43.2" width="14" height="14" fill="#00B4AB" stroke="#ffffff" style="stroke-width: 1px;"></rect><rect y="68.4" width="14" height="14" fill="#dea584" stroke="#ffffff" style="stroke-width: 1px;"></rect><rect y="93.60000000000002" width="14" height="14" fill="#3178c6" stroke="#ffffff" style="stroke-width: 1px;"></rect><rect y="118.80000000000001" width="14" height="14" fill="#e34c26" stroke="#ffffff" style="stroke-width: 1px;"></rect><text x="16.8" y="30" style="fill: #586e75; font-size: 14px;">Python</text><text x="16.8" y="55.2" style="fill: #586e75; font-size: 14px;">Dart</text><text x="16.8" y="80.4" style="fill: #586e75; font-size: 14px;">Rust</text><text x="16.8" y="105.60000000000002" style="fill: #586e75; font-size: 14px;">TypeScript</text><text x="16.8" y="130.8" style="fill: #586e75; font-size: 14px;">HTML</text></g><g transform="translate( 230, 80 )"><g class="arc"><path d="M3.67394039744206e-15,-60A60,60,0,0,1,28.021843657944043,53.054465203314805L16.346075467134025,30.948438035266967A35,35,0,0,0,2.1431318985078682e-15,-35Z" style="fill: #3572A5; stroke-width: 2px;" stroke="#ffffff"></path></g><g class="arc"><path d="M28.021843657944043,53.054465203314805A60,60,0,0,1,-59.537025079172416,7.439263721766716L-34.729931296183906,4.339570504363918A35,35,0,0,0,16.346075467134025,30.948438035266967Z" style="fill: #00B4AB; stroke-width: 2px;" stroke="#ffffff"></path></g><g class="arc"><path d="M-59.537025079172416,7.439263721766716A60,60,0,0,1,-34.66100403013908,-48.9756551729804L-20.218919017581133,-28.56913218423857A35,35,0,0,0,-34.729931296183906,4.339570504363918Z" style="fill: #dea584; stroke-width: 2px;" stroke="#ffffff"></path></g><g class="arc"><path d="M-34.66100403013908,-48.9756551729804A60,60,0,0,1,-10.455985304523493,-59.081912387054544L-6.099324760972038,-34.46444889244848A35,35,0,0,0,-20.218919017581133,-28.56913218423857Z" style="fill: #3178c6; stroke-width: 2px;" stroke="#ffffff"></path></g><g class="arc"><path d="M-10.455985304523493,-59.081912387054544A60,60,0,0,1,-1.1021821192326178e-14,-60L-6.429395695523604e-15,-35A35,35,0,0,0,-6.099324760972038,-34.46444889244848Z" style="fill: #e34c26; stroke-width: 2px;" stroke="#ffffff"></path></g></g></g></svg>